<?xml version="1.0" encoding="UTF-8"?>
<!DOCTYPE svg PUBLIC "-//W3C//DTD SVG 1.1//EN" "http://www.w3.org/Graphics/SVG/1.1/DTD/svg11.dtd">
<!-- Creator: CorelDRAW (Versión de evaluación) -->
<svg xmlns="http://www.w3.org/2000/svg" xml:space="preserve" width="6.34156in" height="1.61546in" version="1.1" style="shape-rendering:geometricPrecision; text-rendering:geometricPrecision; image-rendering:optimizeQuality; fill-rule:evenodd; clip-rule:evenodd"
viewBox="0 0 4392.81 1119.03"
 xmlns:xlink="http://www.w3.org/1999/xlink"
 xmlns:xodm="http://www.corel.com/coreldraw/odm/2003">
 <defs>
  <style type="text/css">
   <![CDATA[
    .fil1 {fill:#FEFEFE}
    .fil5 {fill:#373435}
    .fil10 {fill:#FFF212}
    .fil6 {fill:#FFF212}
    .fil0 {fill:#ED3237}
    .fil13 {fill:#282829}
    .fil3 {fill:#00AFEF}
    .fil2 {fill:black}
    .fil7 {fill:#4D4D4D}
    .fil8 {fill:#88898C}
    .fil4 {fill:red}
    .fil11 {fill:#373435;fill-rule:nonzero}
    .fil9 {fill:#ED3237;fill-rule:nonzero}
    .fil12 {fill:black;fill-rule:nonzero}
   ]]>
  </style>
 </defs>
 <g id="Capa_x0020_1">
  <metadata id="CorelCorpID_0Corel-Layer"/>
  <polygon class="fil0" points="3236.64,552.05 3480.09,552.05 3480.09,644.09 3236.64,644.09 "/>
  <g id="_2180265761472">
   <path class="fil1" d="M3666.92 940.43c91.95,-1.66 183.28,-19.64 269.05,-52.8 61.47,-23.77 124.64,-57.07 176.25,-98.41l140.59 -112.62 -31.63 61.44c-136.24,264.62 -210.97,373.76 -527.21,372.7l-834.85 -2.78c-14.51,-0.05 -25.54,-11.97 -17.69,-25.67 3.45,-6.03 10.83,-11.07 16.59,-14.77 18.94,-12.15 41.52,-22.73 61.97,-32.13 28.62,-13.15 57.86,-25.3 87.32,-36.44 28.35,-10.72 57.61,-20.89 86.78,-28.45 97.94,-28.03 198.27,-37.6 299.99,-38.34 91.23,-0.67 181.79,6.12 272.86,8.27zm-359.64 -624.14c8.91,18.16 21.35,34.74 27.53,54.49l1.79 5.7 -2.69 5.33c-16.41,32.53 -32.05,65.66 -47.97,98.45 -25.66,52.84 -51.44,105.63 -77.69,158.18 -25.02,50.08 -50.38,100.34 -77.34,149.41 -8.56,15.58 -37.15,70.24 -53.23,77.57 -17.1,7.79 -34.14,16.02 -51.02,24.33l363.76 1.36 -86.98 28.38c-13.87,4.53 -31.81,6.51 -46.36,8.29 -15.05,1.84 -30.49,3.18 -45.43,5.61 -28.28,4.59 -56.33,10.53 -84.32,16.6 -53.54,11.62 -105.46,28.76 -156.27,49.13 -28.45,11.41 -55,24.89 -81.04,41.02 -20.06,12.43 -39.31,26.19 -59.51,38.34 -54.15,32.54 -103.76,40.55 -166.56,40.55 -853.56,0 -1707.13,0 -2560.69,0l-103.25 0 98.39 -28.65c0.58,-0.32 1.18,-0.62 1.78,-0.9l0.46 -0.2 6.93 -2.96 0.81 -0.24c3.36,-1 7.13,-1.37 10.61,-1.86l46.56 -6.58c20.91,-3.16 41.83,-6.68 62.73,-10.35 115.73,-20.33 227.95,-48.66 332.03,-104.81 33.05,-17.84 63.82,-40.05 98.61,-54.62 25.58,-10.71 60.25,-14.44 87.79,-16.53 38.54,-2.92 77.65,-3.18 116.29,-2.93 39.74,0.26 79.46,1.28 119.19,1.88 19.43,0.29 39.32,0.65 59.08,0.34 -9.05,-7.82 -18.23,-15.5 -27.36,-23.23 -12.45,-10.54 -42.25,-34.44 -49.98,-47.91l-4.34 -7.57 4.55 -7.44c6.96,-11.38 12.3,-23.76 18.57,-35.52 72.14,-135.17 140.32,-272.42 212.08,-407.79 6.71,-12.66 12.08,-26.08 19.77,-38.22 6.73,-10.61 38.1,-31.42 49.12,-39 16.46,-11.32 33.16,-22.16 49.71,-33.31 12.46,-8.39 46.22,-16.42 61.12,-20.22 34.31,-8.75 69.03,-16.43 103.64,-23.91 59.94,-12.95 120.01,-24.73 180.07,-37.04 119.36,-24.47 239.83,-40.42 360.66,-55.49 124.93,-15.58 250.62,-24.72 375.99,-35.98 258.23,-23.2 517.48,-31.46 776.39,-43.37 33.03,-1.52 66.13,-0.8 99.15,-2.65 26.11,-1.46 27.74,0.96 49.21,13.07l102.84 58.05c12.74,6.84 23.78,9.75 29.45,25.05 2.89,7.8 3.77,17.4 4.46,25.66 1.25,15.02 1.9,30.19 2.74,45.24l0.5 8.98 -7.76 4.55c-13.39,7.84 -25.91,18.25 -38.53,27.33l-106.02 76.38zm-78.1 -48.7c14.33,-3.19 66.31,-41.8 79.63,-51.22 14.41,-10.19 29.82,-19.69 44.54,-29.5 8.4,-5.59 16.8,-11.25 25,-17.13 0.08,-0.06 0.17,-0.13 0.26,-0.19 -0.05,-0.03 -0.09,-0.06 -0.14,-0.08 -8.48,-5.31 -17.19,-10.33 -25.9,-15.24 -15.72,-8.87 -31.62,-17.39 -47.53,-25.89 -13.93,-7.45 -30.38,-16.78 -46.35,-18.58 -7.77,-0.88 -16,-0.53 -23.79,-0.14 -13.82,0.68 -27.63,1.69 -41.46,2.39 -263.36,13.42 -527.36,17.03 -789.89,43.6 -124.84,12.63 -249.86,23.64 -374.62,37 -125.04,13.39 -249.39,29.49 -373.34,50.84 -8.01,1.38 -16.01,2.78 -24.01,4.21 12.7,-1.16 25.39,-2.32 38.09,-3.46 131.62,-11.88 264.05,-19.28 396.09,-24.66 131.51,-5.35 263.31,-8.59 394.94,-9.07 175.16,-0.64 351.22,5.53 525.62,22.2 41.64,3.98 83.21,8.5 124.64,14.37l0.46 0.07 117.77 20.49z"/>
  </g>
  <g id="_2180265781536">
   <path class="fil2" d="M3694.01 1096.02c306.15,1 377.62,-99.69 514.07,-364.72l-86.66 69.42c-82.6,66.16 -246.27,150.76 -454.54,154.45 -169.52,-3.98 -368.06,-27.93 -568.93,29.55 -101.24,26.27 -277.36,108.39 -238.79,108.52l834.85 2.78z"/>
   <path class="fil2" d="M1418.28 279.03c-4.6,4.99 -4.18,3.55 -12.65,2.42l11.01 -4.4c30.53,-2.68 82.87,-18.7 117,-25.68 39.84,-8.14 79.46,-15.57 119.46,-22.46 262.91,-45.28 485.51,-61.32 748.98,-87.98 263.43,-26.66 527.72,-30.25 790.63,-43.65 70.52,-3.59 70.12,-8.23 119.29,18.05 17.9,9.57 79.38,42.11 90.78,53.4 -6.87,9.27 -71.02,49.45 -85.47,59.66 -15.22,10.76 -75.22,55.87 -89.17,53.96l-119.25 -20.75c-41.53,-5.89 -82.1,-10.29 -123.97,-14.3 -170.82,-16.33 -349.76,-22.77 -524.17,-22.13 -238.09,0.86 -550.38,12.06 -789.75,33.67 -33.71,3.04 -236.47,22.11 -252.71,20.18zm-441.6 533.12c9.09,15.86 82.01,70.88 100.43,91.75 -98.55,6.92 -335.22,-14.83 -412.53,17.54 -33.21,13.91 -65.54,36.86 -97.31,54 -105.76,57.07 -218.51,85.64 -336.47,106.36 -21.86,3.84 -41.75,7.18 -63.14,10.42l-46.62 6.59c-2.16,0.29 -6.57,0.83 -8.48,1.39l-6.16 2.63c-0.54,0.25 -1.34,0.67 -1.95,1.13l-1.21 0.35c853.56,0 1707.13,0 2560.69,0 161.29,0 162.1,-62.9 301.63,-118.84 50.49,-20.24 103.01,-37.79 158.63,-49.85 27.7,-6.01 56.43,-12.1 85.08,-16.75 22.58,-3.67 70.25,-7.06 89.58,-13.36l-330.77 -1.24c9.56,-7.81 83.51,-43.16 103.47,-52.24 28.1,-12.8 218.17,-415.33 249.2,-476.83 -6.35,-20.3 -23.04,-42.03 -31.2,-62.48 1.34,-1.77 1.15,-1.78 3.61,-4.03 1.58,-1.45 2.45,-2.08 4.13,-3.34l107.4 -77.38c13.51,-9.87 26.67,-20.47 39.7,-28.1 -4.46,-79.95 -2.68,-69.71 -29.05,-83.87l-102.97 -58.12c-18.62,-10.36 -17.61,-12.51 -41.15,-11.2 -33.42,1.86 -66.11,1.13 -99.29,2.65 -258.26,11.88 -518.14,20.18 -775.75,43.32 -125.56,11.28 -252.59,20.6 -375.49,35.93 -123.47,15.39 -239.75,30.75 -359.52,55.3 -52.91,10.84 -313.68,61.53 -339.56,78.96 -12.86,8.66 -87.85,57.29 -94.62,67.97 -6.95,10.97 -12.89,25.34 -19.2,37.24 -70.97,133.88 -141.07,274.72 -212.1,407.82 -6.18,11.57 -11.84,24.56 -19,36.27z"/>
  </g>
  <g id="_2180265783264">
   <path class="fil1" d="M116.73 1051.75c0.07,-0.08 0.13,-0.16 0.19,-0.23l0.52 -0.65 11.09 -10.98 0.25 -0.22c46.65,-42.17 95.91,-79.02 147.11,-115.33 8.67,-6.15 50.86,-35.06 63.83,-48.72 -32.47,-8.37 -169.22,-2.53 -189.52,-1.81l-40.8 1.43 30.5 -27.15c40.68,-36.21 85.48,-69.13 130.41,-99.85 53.5,-36.59 108.78,-70.85 164.68,-103.63 118.34,-69.4 241.12,-133.34 365.08,-192.1 54.97,-26.06 110.47,-51.18 166.55,-74.76 43.82,-18.42 88.44,-36.27 133.51,-51.42 24.93,-8.38 59.47,-19.76 85.74,-21.35 9.9,-0.6 21.31,0.22 28.45,8.06 8.74,9.59 5.47,21.88 -1.01,31.59 -30.86,46.24 -58.05,97.3 -83.89,146.52 -30.3,57.7 -59.39,116.03 -89.09,174.03 -24.88,48.59 -50.33,98.66 -78.91,145.16 -9.41,15.31 -19.95,31.72 -31.83,45.23 -8.54,9.71 -20.67,21.2 -34.74,19.48 -68.43,-8.33 -134.78,-6.4 -201.67,10.97 -56.51,14.68 -107.85,38.91 -159.73,65.03 -56.98,28.68 -112.25,57.3 -172.28,79.52 -76.55,28.34 -154.13,44.33 -235.52,50.4l-26.6 1.98 12.49 -23.56c0.48,-0.9 0.95,-1.8 1.4,-2.71 0.96,-1.94 2.26,-3.59 3.78,-4.91z"/>
  </g>
  <path class="fil2" d="M149.69 859.08c358.51,-12.57 185.52,13.84 -11.03,191.51l-10.26 10.16c-3.77,4.69 -0.36,-1.05 -3.84,5.53 372.55,-27.79 442.81,-245.97 772.06,-205.86 45.46,5.54 201.32,-369.43 304.43,-523.97 67.23,-100.75 -769.25,271.51 -1051.36,522.63z"/>
  <path class="fil3" d="M244.95 822.86c21.54,-0.24 43,-0.02 64.1,1.05 25.69,1.31 69.16,2.51 76.29,39.93 4.84,25.38 -11.43,43.68 -27.05,57.12 -15.84,13.63 -33.63,25.82 -50.46,37.74 -27.96,19.83 -55.46,39.66 -82.42,60.52 51.14,-10.09 101.18,-25.09 151.45,-45.77 64.98,-26.72 126.33,-61.68 190.19,-91.27 111.84,-51.84 207.7,-69.34 327.38,-55.56 31.65,-26.65 137.72,-242.9 158.1,-282.89 21.2,-41.6 42.57,-83.14 64.82,-123.98 10.81,-19.83 21.88,-39.73 33.42,-59.23 -9.98,2.78 -18.99,5.61 -23.77,7.13 -46.66,14.82 -93.18,33.37 -138.72,52.39 -128.41,53.64 -256.04,115.63 -380.15,181.73 -84.35,44.92 -168.16,92.48 -249.63,144.26 -37.68,23.95 -76.27,49.42 -113.54,76.82z"/>
  <path class="fil1" d="M344.28 827.46c18.77,4.22 36.15,13.63 40.43,36.1 6.35,12.27 -3.82,29.09 -3.68,30.44 50.34,-12.49 139.78,-80.27 265.08,-118.34 142.09,-43.17 274.95,-100.1 366.24,-153.8 18.32,-35.95 33.15,-65.86 39.55,-78.41l8.23 -16.13c-194.65,53.57 -180.6,84.12 -385.08,135.54 -131.08,32.97 -304.2,137.68 -330.78,164.6z"/>
  <g id="_2180265788016">
   <path class="fil4" d="M2157.05 450.66c4.19,-9.29 15.25,-39.39 23.52,-39.39l112.41 0.18 -163.57 345.98 -116.79 0 144.43 -306.77zm-406.82 360.24c24.49,11.49 24.17,31.67 51.59,31.65l459.63 0.62c11.96,0 73.03,-37.72 91.47,-47.93 12.68,-7.03 9.73,-8.07 21.01,-29.65 22.87,-43.73 43.97,-85.83 67.12,-130.24l136.93 -260.16c-4.07,-8.56 -28.96,-50.14 -37.14,-51.61l-450.26 0c-36.07,-0 -33.33,-2.83 -60.92,15.29 -52.92,34.74 -42.49,15.92 -64.65,57.03 -63.12,117.07 -124.6,238.67 -186.29,356.7 -6.31,12.07 -25.53,45.96 -28.49,58.32z"/>
   <path class="fil4" d="M3265.41 375.19c-2.13,-7.26 -9.68,-20.66 -13.23,-27.37 -2.66,-5.02 -4.63,-9.09 -6.98,-13.45 -3.96,-7.36 -3.34,-7.65 -9.34,-10.79l-489.51 0c-10.34,0 -77.99,43.28 -85.79,56.67 -32.29,55.45 -75.84,146.52 -109.53,206.82 5.1,11.18 12.81,19.4 22.23,29.76 15.13,16.67 5.13,17.57 34.53,17.22 76.12,-0.9 221.18,-3.57 286.03,0.73l-64.06 125.37 -108.28 0c4.2,-17.61 19.76,-41.65 25.53,-60.4l-252.35 0.2c-6.16,7.34 -46.65,85.83 -50.34,96.28 2.6,4.09 49.2,46.95 58.42,46.95l446.79 0c12.11,0 70.42,-33.87 85.63,-41.31 11.58,-5.67 9.02,-5.28 15.21,-17.4l34.1 -65.85c15.75,-30.05 30.01,-58.27 45.66,-87.54 8,-14.95 40.8,-75.49 43.93,-86.84l-353.18 -0.78c6.26,-18.59 21.08,-47.94 30.2,-66.75 8.81,-18.17 24.98,-63.47 33.8,-63.48l113.19 0.55 -26.39 57.91 242.46 0.02 51.27 -96.51z"/>
   <path class="fil4" d="M1208.54 633.25c97.34,0 199.3,0 301.26,0 -2.62,7.85 -56.41,124.16 -63.43,126.24l-105.49 0 25.47 -59.03 -250.17 -1.4c-6.57,1.42 -50.71,90.18 -52.8,97.18 4.44,5.64 48.54,46.18 59.73,46.18l445.64 0c11.54,0 70.94,-33.72 85.14,-41.04 12.09,-6.23 9.09,-4.48 15.55,-17.09l124.67 -239.59 -354.45 -1.13 45.76 -100.76c2.43,-5.11 5.12,-10.25 7.38,-15.67 3.51,-8.4 2.96,-13.91 11.31,-13.91l112.5 0.58 -26.57 56.09c21.95,3.34 202.48,1.16 239.64,1.14 8.25,0 12.03,-14.78 16.22,-22.44 4.48,-8.2 8.5,-15.89 13.29,-25.12 7.66,-14.76 21.23,-36.6 25.79,-51.81 -11.31,-12.98 -20.3,-45.81 -29.9,-48.09 -159.22,0 -318.82,1.31 -477.99,-0.03 -32.67,-0.28 -44.68,17.26 -81.83,42.22 -20.55,13.8 -36.53,58.5 -47.82,85.03 -13.51,31.75 -28.64,60.06 -42.2,91.6 -23.61,54.92 -23.86,35.88 -9.24,70.24 3.27,7.68 4.92,16.66 12.55,20.61z"/>
  </g>
  <path class="fil3" d="M1427.46 277.05l1.64 1.98c16.24,1.93 219,-17.14 252.71,-20.18 239.38,-21.6 551.67,-32.8 789.75,-33.67 174.41,-0.64 353.34,5.8 524.17,22.13 41.88,4 82.44,8.41 123.97,14.3l119.25 20.75c13.94,1.91 73.95,-43.2 89.17,-53.96 14.45,-10.21 78.59,-50.39 85.47,-59.66 -11.41,-11.29 -72.88,-43.83 -90.78,-53.4 -49.17,-26.28 -48.77,-21.65 -119.29,-18.05 -262.9,13.4 -527.19,17 -790.63,43.65 -263.48,26.66 -486.08,42.7 -748.98,87.98 -40,6.89 -79.62,14.32 -119.46,22.46 -34.13,6.97 -86.47,22.99 -117,25.68z"/>
  <path class="fil5" d="M2121.56 739.75c2.73,-9.67 13.02,-29.93 18.29,-40.41l127.38 -270.4 -79.66 0c-5.02,1.76 -99.28,202.15 -113.49,233.83 -10.46,23.32 -28.55,54.51 -35.58,76.81l83.06 0.18z"/>
  <g id="_2180265790176">
   <path class="fil6" d="M1208.54 633.25c-7.63,-3.95 -9.29,-12.93 -12.55,-20.61 -14.62,-34.35 -14.37,-15.32 9.24,-70.24 13.56,-31.54 28.69,-59.85 42.2,-91.6 11.29,-26.54 27.26,-71.23 47.82,-85.03 37.16,-24.96 49.17,-42.49 81.83,-42.22 159.16,1.34 318.77,0.03 477.99,0.03 9.6,2.28 18.59,35.1 29.9,48.09 -4.57,15.21 -18.13,37.05 -25.79,51.81 -4.79,9.22 -8.81,16.92 -13.29,25.12 -4.19,7.65 -7.97,22.44 -16.22,22.44 -37.16,0.02 -217.69,2.2 -239.64,-1.14l26.57 -56.09 -112.5 -0.58c-8.35,0 -7.8,5.51 -11.31,13.91 -2.26,5.42 -4.95,10.57 -7.38,15.67l-45.76 100.76 354.45 1.13 -124.67 239.59c-6.46,12.6 -3.46,10.85 -15.55,17.09 -14.2,7.32 -73.59,41.04 -85.14,41.04l-445.64 0c-11.19,0 -55.29,-40.53 -59.73,-46.18 2.1,-7 46.24,-95.76 52.8,-97.18l250.17 1.4 -25.47 59.03 105.49 0c7.03,-2.08 60.82,-118.39 63.43,-126.24 -101.96,0 -203.92,0 -301.26,0zm-12.08 18.44l286.21 0.04c-9.97,28.05 -28.91,61.63 -41.56,89.41l-74.19 0.83c7.29,-20.49 20.25,-40.6 25.98,-59.39l-285.95 -1.82c-4.56,1.55 -61.65,112.1 -64.28,121.39l59.66 51.11c9.57,8.25 12.92,7.82 27.66,7.65l420.3 -0.05c34.22,0.06 28.65,-1.06 56.16,-14.89 16.5,-8.3 32.06,-16.66 48.06,-25 25.24,-13.17 21.01,-14.27 34.83,-40.42l79.78 -153.37c9.16,-17.12 17.2,-32.87 26.44,-50.36 8.21,-15.53 20.6,-37.28 25.68,-50.44l-355.02 -0.68c4.64,-15.14 36.5,-87.82 44.82,-94.58l77.21 0 -25.83 57.03 280.64 1.28c16.34,-32.11 31.27,-61.44 48.44,-93.14 13.62,-25.15 13.66,-19.08 -0.21,-44.68 -8.41,-15.51 -15.14,-30.5 -24.66,-45.59 -81.92,-4.6 -173.32,-0.33 -256.3,-0.33 -35.1,0 -240.15,-2.74 -255.55,0.37 -4.15,0.84 -75.02,47.92 -81.02,53.52 -8.98,8.39 -17.54,34.1 -23.87,47.83l-67.07 146.7c-19.72,43.24 -20.98,17.71 13.66,97.59z"/>
   <path class="fil6" d="M3214.14 471.69l-242.46 -0.02 26.39 -57.91 -113.19 -0.55c-8.83,0 -24.99,45.3 -33.8,63.48 -9.12,18.81 -23.94,48.17 -30.2,66.75l353.18 0.78c-3.14,11.36 -35.94,71.89 -43.93,86.84 -15.65,29.27 -29.91,57.49 -45.66,87.54l-34.1 65.85c-6.2,12.12 -3.64,11.73 -15.21,17.4 -15.21,7.44 -73.51,41.31 -85.63,41.31l-446.79 0c-9.22,0 -55.82,-42.85 -58.42,-46.95 3.69,-10.45 44.19,-88.94 50.34,-96.28l252.35 -0.2c-5.78,18.75 -21.33,42.78 -25.53,60.4l108.28 0 64.06 -125.37c-64.85,-4.3 -209.91,-1.63 -286.03,-0.73 -29.4,0.35 -19.4,-0.56 -34.53,-17.22 -9.41,-10.37 -17.12,-18.59 -22.23,-29.76 33.69,-60.3 77.24,-151.37 109.53,-206.82 7.8,-13.39 75.45,-56.67 85.79,-56.67l489.51 0c6,3.14 5.38,3.42 9.34,10.79 2.35,4.36 4.33,8.44 6.98,13.45 3.55,6.71 11.1,20.11 13.23,27.37l-51.27 96.51zm-682.11 118.09c6.19,14.26 12.89,17.91 22.73,29.77 35.15,42.33 -1.03,32.14 117.69,32.14 64.74,0 129.47,0 194.21,0 -5.52,16.46 -15.4,32.39 -22.97,47.2l-17.22 33.99c-4.58,7.93 -2.78,6.32 -8.55,9.59l-69.85 0c7.4,-21.81 18.63,-39.11 25.85,-60.18l-286.19 -0.14c-5.99,1.64 -61.47,111.75 -63.65,119.52 5.07,6.22 65.31,59.19 72.89,59.19l454.88 0c15.67,0 75.43,-35.63 93.29,-44.62 13.95,-7.02 16.33,-18.75 29.6,-43.84l127.14 -246.15 -355.1 -0.01c5.1,-14.03 36.98,-88.02 45.05,-94.57l77.41 0.97c-7.93,17.75 -18.86,38.01 -25.89,55.8l281.05 0.61c4.97,-13.3 16.18,-31.94 23.36,-45.54 40,-75.83 40.47,-61.92 24.27,-91.85 -8.54,-15.78 -15.33,-30.43 -24.62,-45.63 -76.06,-4.27 -160.81,-0.33 -237.83,-0.33 -80.05,0 -160.09,0.01 -240.14,0 -44.74,-0.01 -36.77,-0.68 -88.21,36.33 -41.47,29.84 -24.84,13.82 -57.49,73.6 -15.57,28.52 -30.39,58.01 -46.18,86.93l-45.52 87.24z"/>
   <path class="fil6" d="M1750.23 810.91c2.96,-12.36 22.18,-46.25 28.49,-58.32 61.69,-118.03 123.17,-239.62 186.29,-356.7 22.16,-41.11 11.73,-22.29 64.65,-57.03 27.59,-18.12 24.86,-15.29 60.92,-15.29l450.26 0c8.18,1.47 33.07,43.05 37.14,51.61l-136.93 260.16c-23.15,44.42 -44.25,86.51 -67.12,130.24 -11.29,21.58 -8.33,22.62 -21.01,29.65 -18.44,10.21 -79.51,47.93 -91.47,47.93l-459.63 -0.62c-27.42,0.01 -27.1,-20.16 -51.59,-31.65zm-19.86 1.62c6.55,10.14 32.72,29.11 43.09,38.98 7.09,6.73 7.66,9.35 19.27,9.35l471.04 0c16.54,0 73.5,-37.81 95.9,-49.56 17.15,-8.99 13.69,-10.5 23.61,-29.31 11.79,-22.36 23.53,-45.76 34.82,-67.72l178.38 -341.8 -34.5 -52.02c-3.18,-4.81 -7.63,-14.77 -14.19,-14.77l-489.51 0c-14.29,0 -49.5,25.82 -63.65,35.32 -33.32,22.35 -23.4,7.07 -47.8,55.14 -56.72,111.73 -125.13,233.44 -180.07,345.03 -11.23,22.81 -27.55,48.82 -36.37,71.37z"/>
   <path class="fil6" d="M2121.56 739.75l-83.06 -0.18c7.02,-22.29 25.12,-53.49 35.58,-76.81 14.21,-31.68 108.47,-232.07 113.49,-233.83l79.66 0 -127.38 270.4c-5.27,10.48 -15.56,30.74 -18.29,40.41zm-108.95 17.68l116.79 0 163.57 -345.98 -112.41 -0.18c-8.27,0 -19.33,30.11 -23.52,39.39l-144.43 306.77z"/>
  </g>
  <path class="fil7" d="M2288.88 904.16l173.47 0.14 -55.64 -48.1c-10.91,-8.89 -12.47,-6.71 -25.09,-0.09 -15.67,8.22 -30.45,15.47 -46.81,23.7 -13.6,6.84 -36.19,16.54 -45.92,24.35z"/>
  <polygon class="fil7" points="1598.5,903.07 1756.06,904.32 1700.36,850.34 "/>
  <path class="fil8" d="M1429.11 279.03l-1.64 -1.98 -11.01 4.4c8.48,1.13 8.06,2.57 12.65,-2.42z"/>
  <path class="fil9" d="M832.35 1082.39l-72.35 0c-8.17,0 -12.27,-3.49 -12.27,-10.47 0,-6.98 4.11,-10.47 12.27,-10.47l23.86 0 0 -109.15 -19.48 0c-8.16,0 -12.27,-3.49 -12.27,-10.47 0,-6.98 4.11,-10.47 12.27,-10.47l63.59 0c8.17,0 12.27,3.49 12.27,10.47 0,6.98 -4.11,10.47 -12.27,10.47l-19.48 0 0 109.15 23.86 0c8.17,0 12.27,3.49 12.27,10.47 0,6.98 -4.1,10.47 -12.27,10.47zm190.45 -7.96c0,7.02 -4.1,10.55 -12.27,10.55l-10.08 0c-5.2,0 -8.89,-2 -11.13,-5.96l-61.49 -110.09 0 105.5c0,7.02 -4.11,10.55 -12.32,10.55 -8.21,0 -12.32,-3.53 -12.32,-10.55l0 -133.73c0,-7.02 4.06,-10.51 12.22,-10.51l10.04 0c5.2,0 8.85,2 11.08,5.96l61.63 110.25 0 -105.66c0,-7.02 4.1,-10.55 12.32,-10.55 8.21,0 12.31,3.49 12.31,10.51l0 133.73zm163.13 -65.71c0,9.92 -1.92,19.37 -5.75,28.34 -5.98,13.88 -15.1,24.62 -27.42,32.19 -8.53,5.29 -20.25,9.17 -35.12,11.65 -5.89,0.98 -14.42,1.49 -25.68,1.49l-11.95 0 0 -151.02c0.68,-0.82 4.88,-0.82 12.68,0 6.34,0.39 15,1.37 25.95,2.86 11.91,2.86 23.22,8.08 33.99,15.56 13.28,9.25 22.4,19.37 27.37,30.35 3.97,8.66 5.93,18.19 5.93,28.58zm-24.63 0.04c0,-9.57 -1.87,-17.56 -5.61,-23.99 -3.61,-6.12 -9.86,-12.31 -18.62,-18.58 -8.03,-5.69 -16.38,-9.57 -24.95,-11.65 -2.42,-0.59 -4.88,-0.98 -7.48,-1.21l0 107.81c2.01,-0.16 4.84,-0.43 8.48,-0.86 10.99,-1.73 19.39,-4.43 25.23,-8.04 8.39,-5.29 14.64,-12.7 18.66,-22.31 2.87,-6.82 4.29,-13.88 4.29,-21.17zm193.24 37.21c0,11.72 -6.16,21.33 -18.43,28.74 -11.22,6.86 -24.5,10.27 -39.87,10.27 -15.37,0 -28.69,-3.41 -40,-10.27 -12.18,-7.41 -18.29,-17.01 -18.29,-28.74l0 -106.44c0,-7.02 4.11,-10.51 12.32,-10.51 8.21,0 12.32,3.53 12.32,10.55l0 106.52c0,6.12 3.69,10.78 11.04,14 6.11,2.63 13.64,3.96 22.62,3.96 8.99,0 16.51,-1.33 22.63,-3.96 7.34,-3.22 11.04,-7.88 11.04,-14l0 -106.52c0,-7.02 4.1,-10.55 12.32,-10.55 8.21,0 12.32,3.49 12.32,10.51l0 106.44zm171.34 29.68c0,7.02 -4.1,10.51 -12.32,10.51 -8.21,0 -12.31,-3.49 -12.31,-10.51l0 -121.11 -26.42 75.79c-2.1,6.11 -5.98,9.13 -11.63,9.13 -5.7,0 -9.58,-3.02 -11.68,-9.13l-26.37 -75.9 0 121.22c0,7.02 -4.11,10.51 -12.32,10.51 -8.21,0 -12.32,-3.49 -12.32,-10.51l0 -134.94c0,-7.02 4.11,-10.51 12.27,-10.51l20.25 0c6.07,0 9.99,2.51 11.73,7.49l18.43 53.08 18.48 -53.08c1.73,-4.98 5.65,-7.49 11.72,-7.49l20.21 0c8.17,0 12.27,3.49 12.27,10.51l0 134.94zm151.5 6.74l-98.67 0 0 -152.2 95.8 0c8.17,0 12.23,3.49 12.23,10.47 0,6.98 -4.06,10.47 -12.23,10.47l-71.16 0 0 40.93 61.12 0c8.12,0 12.18,3.49 12.18,10.47 0,6.98 -4.06,10.47 -12.18,10.47l-61.12 0 0 48.46 74.08 0c8.12,0 12.23,3.49 12.23,10.47 0,6.98 -4.1,10.47 -12.27,10.47zm178.86 -7.96c0,7.02 -4.1,10.55 -12.27,10.55l-10.08 0c-5.2,0 -8.89,-2 -11.13,-5.96l-61.49 -110.09 0 105.5c0,7.02 -4.11,10.55 -12.32,10.55 -8.21,0 -12.32,-3.53 -12.32,-10.55l0 -133.73c0,-7.02 4.06,-10.51 12.22,-10.51l10.04 0c5.2,0 8.85,2 11.08,5.96l61.63 110.25 0 -105.66c0,-7.02 4.1,-10.55 12.32,-10.55 8.21,0 12.32,3.49 12.32,10.51l0 133.73zm157.47 -122.13l-38.14 0 0 122.13c0,7.02 -4.1,10.55 -12.32,10.55 -8.21,0 -12.32,-3.53 -12.32,-10.55l0 -122.13 -38.13 0c-8.17,0 -12.23,-3.49 -12.23,-10.47 0,-6.98 4.1,-10.47 12.27,-10.47l100.86 0c8.17,0 12.23,3.49 12.23,10.47 0,6.98 -4.06,10.47 -12.23,10.47zm183.52 119.42c0.37,1.1 0.55,2.12 0.55,3.1 0,2.98 -1.28,5.41 -3.88,7.29 -2.6,1.92 -5.52,2.86 -8.76,2.86 -6.07,0 -9.9,-2.59 -11.5,-7.8l-11.95 -38.07 -52.69 0 -9.72 37.48c-1.32,5.61 -5.2,8.39 -11.59,8.39 -3.29,0 -6.16,-0.94 -8.71,-2.78 -2.51,-1.88 -3.79,-4.35 -3.79,-7.41 0,-0.82 0.09,-1.73 0.28,-2.63l11.54 -45.79c0.09,-0.35 0.23,-0.79 0.41,-1.37l25.68 -88.13c1.51,-5.21 5.47,-7.84 11.77,-7.84l20.21 0c6.34,0 10.27,2.63 11.82,7.92l40.32 134.79zm-41.92 -53.56c-3.46,-12.31 -10.03,-35.05 -19.75,-68.22l-1.19 0 -19.85 68.22 40.78 0zm196.61 -39.83c-0.59,9.17 -4.06,17.25 -10.49,24.27 -6.43,7.06 -14.55,12.08 -24.41,15.13l34.53 51.52c1.37,1.84 2.01,3.65 2.01,5.49 0,2.9 -1.32,5.37 -3.92,7.41 -2.65,2.04 -5.61,3.06 -8.9,3.06 -4.52,0 -7.94,-1.8 -10.36,-5.45l-39.64 -59.24 -22.31 0 0 54.1c0,7.06 -4.1,10.58 -12.31,10.58 -8.21,0 -12.32,-3.53 -12.32,-10.55l0 -143.3 54.06 0c14.6,0 27.37,4.59 38.36,13.76 11.31,9.49 16.56,20.54 15.69,33.21zm-24.63 -1.13c0.37,-6.82 -2.46,-12.67 -8.53,-17.57 -6.07,-4.9 -13.05,-7.33 -20.89,-7.33l-29.43 0 0 47.28 29.43 0c7.66,0 14.37,-2.08 20.16,-6.27 5.79,-4.19 8.9,-9.57 9.26,-16.11zm171.93 105.19l-72.35 0c-8.17,0 -12.27,-3.49 -12.27,-10.47 0,-6.98 4.1,-10.47 12.27,-10.47l23.86 0 0 -109.15 -19.48 0c-8.17,0 -12.27,-3.49 -12.27,-10.47 0,-6.98 4.1,-10.47 12.27,-10.47l63.59 0c8.17,0 12.27,3.49 12.27,10.47 0,6.98 -4.1,10.47 -12.27,10.47l-19.48 0 0 109.15 23.85 0c8.17,0 12.27,3.49 12.27,10.47 0,6.98 -4.11,10.47 -12.27,10.47zm198.07 -10.66c0.37,1.1 0.55,2.12 0.55,3.1 0,2.98 -1.28,5.41 -3.88,7.29 -2.6,1.92 -5.52,2.86 -8.76,2.86 -6.07,0 -9.9,-2.59 -11.5,-7.8l-11.95 -38.07 -52.69 0 -9.72 37.48c-1.32,5.61 -5.2,8.39 -11.59,8.39 -3.28,0 -6.16,-0.94 -8.71,-2.78 -2.51,-1.88 -3.79,-4.35 -3.79,-7.41 0,-0.82 0.09,-1.73 0.28,-2.63l11.54 -45.79c0.09,-0.35 0.23,-0.79 0.41,-1.37l25.68 -88.13c1.5,-5.21 5.47,-7.84 11.77,-7.84l20.21 0c6.34,0 10.27,2.63 11.82,7.92l40.33 134.79zm-41.92 -53.56c-3.47,-12.31 -10.03,-35.05 -19.75,-68.22l-1.19 0 -19.85 68.22 40.78 0z"/>
  <path class="fil5" d="M3158.75 810.16l379.27 -762.41c10.32,-20.74 28.53,-33.03 48.96,-33.03l420.15 0c116.47,0 291.39,16.49 351.4,155.09 46.09,106.46 2.21,232.59 -44.91,327.31 -152.21,305.98 -412.72,413.47 -702,413.47l-403.91 0c-20.6,0 -38.96,-12.51 -49.21,-33.54 -10.25,-21.03 -10.16,-45.98 0.25,-66.9zm473.41 -96.81c45.24,-3.84 87.25,-20.08 124.03,-53.89 59.22,-54.46 113.24,-154.84 151.06,-230.88 16.93,-34.03 33.2,-68.88 47.53,-104.52 8.8,-21.88 30.13,-77.81 28.72,-102.79 -10.35,-8.36 -45.86,-10.21 -56.61,-10.21l-44.85 0 -249.88 502.29z"/>
  <path class="fil10" d="M3183.23 827.01l379.27 -762.41c5.23,-10.51 14.12,-16.51 24.48,-16.51l420.15 0c102.51,0 272.33,12.61 326.13,136.87 40.94,94.55 -2.67,212 -44.11,295.31 -146.51,294.5 -397.31,396.95 -677.53,396.95l-403.91 0c-10.44,0 -19.41,-6.11 -24.6,-16.77 -5.2,-10.66 -5.15,-22.85 0.13,-33.45zm399.02 -79.38l27.92 0c60.13,0 115.83,-18.07 163.49,-61.89 61.96,-56.97 118.78,-161.33 158.08,-240.32 22.67,-45.57 84.77,-174.35 79.89,-228.84 -0.38,-4.29 -1.31,-8.46 -3.16,-12.21 -12.06,-24.37 -61.38,-26.69 -81.57,-26.69l-61.12 0 -283.53 569.94z"/>
  <path class="fil11" d="M3207.71 843.87l379.28 -762.41 420.15 0c298.37,0 384.25,127.26 257.54,381.97 -126.14,253.56 -343.77,380.44 -653.05,380.44l-403.91 0zm325.08 -62.87l77.38 0c70.53,0 130.97,-23.05 180.95,-68.96 50.08,-46.1 105.2,-129.35 165.1,-249.75 59.8,-120.21 87.77,-203.46 83.62,-249.18 -4.06,-45.91 -41.9,-68.77 -112.94,-68.77l-77.38 0 -316.73 636.67z"/>
  <polygon class="fil1" points="2366.34,226.01 3311.99,115.34 3413.6,168.74 2984.92,247.31 "/>
  <path class="fil1" d="M344.28 827.46c18.77,4.22 36.15,13.63 40.43,36.1 6.35,12.27 -3.82,29.09 -3.68,30.44 50.34,-12.49 139.78,-80.27 265.08,-118.34 142.09,-43.17 274.95,-100.1 366.24,-153.8 18.32,-35.95 33.15,-65.86 39.55,-78.41l8.23 -16.13c-194.65,53.57 -180.6,84.12 -385.08,135.54 -131.08,32.97 -304.2,137.68 -330.78,164.6z"/>
  <path class="fil3" d="M1427.46 277.05l1.64 1.98c16.24,1.93 219,-17.14 252.71,-20.18 239.38,-21.6 551.67,-32.8 789.75,-33.67 174.41,-0.64 353.34,5.8 524.17,22.13 41.88,4 82.44,8.41 123.97,14.3l119.25 20.75c13.94,1.91 73.95,-43.2 89.17,-53.96 14.45,-10.21 78.59,-50.39 85.47,-59.66 -11.41,-11.29 -72.88,-43.83 -90.78,-53.4 -49.17,-26.28 -48.77,-21.65 -119.29,-18.05 -262.9,13.4 -527.19,17 -790.63,43.65 -263.48,26.66 -486.08,42.7 -748.98,87.98 -40,6.89 -79.62,14.32 -119.46,22.46 -34.13,6.97 -86.47,22.99 -117,25.68z"/>
  <path class="fil2" d="M2121.56 739.75c2.73,-9.67 13.02,-29.93 18.29,-40.41l127.38 -270.4 -79.66 0c-5.02,1.76 -99.28,202.15 -113.49,233.83 -10.46,23.32 -28.55,54.51 -35.58,76.81l83.06 0.18z"/>
  <path class="fil8" d="M1429.11 279.03l-1.64 -1.98 -11.01 4.4c8.48,1.13 8.06,2.57 12.65,-2.42z"/>
  <g id="_2180265797568">
   <path class="fil1" d="M3145.57 803.6l379.27 -762.41c12.04,-24.2 34.59,-41.19 62.14,-41.19l420.15 0c134.8,0 304.09,23.48 364.92,163.97 47.64,110.04 5.08,238.58 -45.24,339.72 -145.68,292.85 -396.6,421.63 -715.19,421.63l-403.91 0c-27.81,0 -50.5,-17.3 -62.45,-41.81 -12.25,-25.13 -12.15,-54.89 0.3,-79.91zm512.34 -108.93c33.03,-7.13 62.4,-22.23 88.32,-46.06 59.47,-54.69 111.79,-154.12 147.85,-226.6 16.88,-33.92 32.92,-68.3 47.05,-103.46 7.88,-19.59 24.67,-63.23 27.36,-88.19 -11.66,-3.22 -34.31,-4.58 -41.59,-4.58l-35.73 0 -233.26 468.89z"/>
  </g>
  <path class="fil2" d="M3158.75 810.16l379.27 -762.41c10.32,-20.74 28.53,-33.03 48.96,-33.03l420.15 0c116.47,0 291.39,16.49 351.4,155.09 46.09,106.46 2.21,232.59 -44.91,327.31 -152.21,305.98 -412.72,413.47 -702,413.47l-403.91 0c-20.6,0 -38.96,-12.51 -49.21,-33.54 -10.25,-21.03 -10.16,-45.98 0.25,-66.9zm473.41 -96.81c45.24,-3.84 87.25,-20.08 124.03,-53.89 59.22,-54.46 113.24,-154.84 151.06,-230.88 16.93,-34.03 33.2,-68.88 47.53,-104.52 8.8,-21.88 30.13,-77.81 28.72,-102.79 -10.35,-8.36 -45.86,-10.21 -56.61,-10.21l-44.85 0 -249.88 502.29z"/>
  <path class="fil6" d="M3183.23 827.01l379.27 -762.41c5.23,-10.51 14.12,-16.51 24.48,-16.51l420.15 0c102.51,0 272.33,12.61 326.13,136.87 40.94,94.55 -2.67,212 -44.11,295.31 -146.51,294.5 -397.31,396.95 -677.53,396.95l-403.91 0c-10.44,0 -19.41,-6.11 -24.6,-16.77 -5.2,-10.66 -5.15,-22.85 0.13,-33.45zm399.02 -79.38l27.92 0c60.13,0 115.83,-18.07 163.49,-61.89 61.96,-56.97 118.78,-161.33 158.08,-240.32 22.67,-45.57 84.77,-174.35 79.89,-228.84 -0.38,-4.29 -1.31,-8.46 -3.16,-12.21 -12.06,-24.37 -61.38,-26.69 -81.57,-26.69l-61.12 0 -283.53 569.94z"/>
  <path class="fil12" d="M3207.71 843.87l379.28 -762.41 420.15 0c298.37,0 384.25,127.26 257.54,381.97 -126.14,253.56 -343.77,380.44 -653.05,380.44l-403.91 0zm325.08 -62.87l77.38 0c70.53,0 130.97,-23.05 180.95,-68.96 50.08,-46.1 105.2,-129.35 165.1,-249.75 59.8,-120.21 87.77,-203.46 83.62,-249.18 -4.06,-45.91 -41.9,-68.77 -112.94,-68.77l-77.38 0 -316.73 636.67z"/>
  <polygon class="fil1" points="2366.34,226.01 3311.99,115.34 3413.6,168.74 2984.92,247.31 "/>
  <g id="_2180265795312">
   <path class="fil13" d="M3236.64 520l243.45 0c17.28,0 29.45,15.45 29.45,32.05l0 92.04c0,16.6 -12.18,32.05 -29.45,32.05l-243.45 0c-17.28,0 -29.45,-15.45 -29.45,-32.05l0 -92.04c0,-16.6 12.18,-32.05 29.45,-32.05z"/>
  </g>
  <path class="fil2" d="M3236.64 534.73l243.45 0c8.11,0 14.73,7.78 14.73,17.32l0 92.04c0,9.54 -6.62,17.33 -14.73,17.33l-243.45 0c-8.11,0 -14.73,-7.78 -14.73,-17.33l0 -92.04c0,-9.54 6.62,-17.32 14.73,-17.32z"/>
  <polygon class="fil0" points="3236.64,552.05 3480.09,552.05 3480.09,644.09 3236.64,644.09 "/>
 </g>
</svg>
